<?xml version="1.0" encoding="utf-8"?>
<!-- Generator: Adobe Illustrator 16.0.0, SVG Export Plug-In . SVG Version: 6.00 Build 0)  -->
<!DOCTYPE svg PUBLIC "-//W3C//DTD SVG 1.1//EN" "http://www.w3.org/Graphics/SVG/1.1/DTD/svg11.dtd">
<svg version="1.1" id="Layer_1" xmlns="http://www.w3.org/2000/svg" xmlns:xlink="http://www.w3.org/1999/xlink" x="0px" y="0px"
	 width="1042px" height="425px" viewBox="0 0 1042 425" enable-background="new 0 0 1042 425" xml:space="preserve">
<path fill="#9F26B5" d="M220.852,92.264h57.142V263h-57.142V92.264z M220.852,18.765h57.142v57.141h-57.142V18.765z"/>
<path fill="#520A76" d="M17,92.475v57.142h112.238v55.858H17v134.506h57.142V263h112.237V92.475H17z M313.596,92v57.616h104.737
	v55.858H313.596v134.506h57.141V263h104.738V92H313.596z M511.077,92v57.616h104.737v55.858H511.077v134.506h57.142V263h104.737V92
	H511.077z"/>
<path fill="#9F26B5" d="M859.746,92v171h161.88v-57H916.888v-25.268h104.738V92H859.746z M708.985,92.264V263h127.655v-57h-70.514
	V92.474L708.985,92.264z"/>
<g>
	<defs>
		<rect id="SVGID_1_" x="-164" y="-103" width="1366" height="768"/>
	</defs>
	<clipPath id="SVGID_2_">
		<use xlink:href="#SVGID_1_"  overflow="visible"/>
	</clipPath>
</g>
<g>
	<defs>
		<rect id="SVGID_3_" x="602.294" y="-32.84" width="1366" height="767.999"/>
	</defs>
	<clipPath id="SVGID_4_">
		<use xlink:href="#SVGID_3_"  overflow="visible"/>
	</clipPath>
</g>
<g>
	<defs>
		<rect id="SVGID_5_" x="-164" y="-103" width="1366" height="768"/>
	</defs>
	<clipPath id="SVGID_6_">
		<use xlink:href="#SVGID_5_"  overflow="visible"/>
	</clipPath>
</g>
<g>
	<g>
		<defs>
			<rect id="SVGID_7_" x="-164" y="-103" width="1366" height="768"/>
		</defs>
		<clipPath id="SVGID_8_">
			<use xlink:href="#SVGID_7_"  overflow="visible"/>
		</clipPath>
	</g>
	<g>
		<defs>
			<rect id="SVGID_9_" x="316.67" y="95.046" width="1366" height="768"/>
		</defs>
		<clipPath id="SVGID_10_">
			<use xlink:href="#SVGID_9_"  overflow="visible"/>
		</clipPath>
	</g>
	<g>
		<defs>
			<rect id="SVGID_11_" x="-164" y="-103" width="1366" height="768"/>
		</defs>
		<clipPath id="SVGID_12_">
			<use xlink:href="#SVGID_11_"  overflow="visible"/>
		</clipPath>
	</g>
</g>
</svg>
